<svg xmlns="http://www.w3.org/2000/svg" xmlns:xlink="http://www.w3.org/1999/xlink" width="1920" zoomAndPan="magnify" viewBox="0 0 1440 809.999993" height="1080" preserveAspectRatio="xMidYMid meet" version="1.0"><defs><clipPath id="id1"><path d="M 313.3125 6.804688 L 1200.421875 6.804688 L 1200.421875 809.847656 L 313.3125 809.847656 Z M 313.3125 6.804688 " clip-rule="nonzero"/></clipPath></defs><g clip-path="url(#id1)"><path fill="#e8d6c8" d="M 326.574219 501.414062 C 349.382812 606.605469 408.757812 704.460938 495.433594 759.113281 C 591.125 819.449219 711.792969 822.476562 817.589844 786.585938 C 923.382812 750.699219 1015.957031 679.304688 1097.292969 598.214844 C 1133.304688 562.308594 1168.355469 522.929688 1186.601562 473.914062 C 1222.515625 377.460938 1184.261719 264.609375 1120.433594 186.59375 C 1027.0625 72.46875 884.042969 14.144531 742.785156 7.59375 C 673.742188 4.394531 604.246094 11.011719 536.550781 25.761719 C 476.570312 38.832031 410.640625 50.179688 366.671875 100.164062 C 309.328125 165.351562 315.144531 260.769531 313.539062 344.222656 C 312.527344 396.898438 315.417969 449.976562 326.574219 501.414062 " fill-opacity="1" fill-rule="nonzero"/></g><path fill="#ffffff" d="M 513.785156 692.179688 L 273.957031 692.179688 L 273.957031 391.769531 L 513.785156 391.769531 L 513.785156 692.179688 " fill-opacity="1" fill-rule="nonzero"/><path fill="#310d12" d="M 275.304688 690.832031 L 512.4375 690.832031 L 512.4375 393.117188 L 275.304688 393.117188 Z M 513.785156 693.527344 L 273.957031 693.527344 C 273.214844 693.527344 272.609375 692.925781 272.609375 692.179688 L 272.609375 391.769531 C 272.609375 391.023438 273.214844 390.421875 273.957031 390.421875 L 513.785156 390.421875 C 514.53125 390.421875 515.136719 391.023438 515.136719 391.769531 L 515.136719 692.179688 C 515.136719 692.925781 514.53125 693.527344 513.785156 693.527344 " fill-opacity="1" fill-rule="nonzero"/><path fill="#e8d6c8" d="M 462.824219 431.546875 L 301.769531 431.546875 C 295.359375 431.546875 290.164062 426.351562 290.164062 419.933594 C 290.164062 413.523438 295.359375 408.328125 301.769531 408.328125 L 462.824219 408.328125 C 469.234375 408.328125 474.429688 413.523438 474.429688 419.933594 C 474.429688 426.351562 469.234375 431.546875 462.824219 431.546875 " fill-opacity="1" fill-rule="nonzero"/><path fill="#e8d6c8" d="M 462.824219 463.496094 L 368.902344 463.496094 C 362.492188 463.496094 357.296875 458.296875 357.296875 451.886719 C 357.296875 445.476562 362.492188 440.28125 368.902344 440.28125 L 462.824219 440.28125 C 469.234375 440.28125 474.429688 445.476562 474.429688 451.886719 C 474.429688 458.296875 469.234375 463.496094 462.824219 463.496094 " fill-opacity="1" fill-rule="nonzero"/><path fill="#e8d6c8" d="M 462.824219 527.398438 L 301.769531 527.398438 C 295.359375 527.398438 290.164062 522.203125 290.164062 515.789062 C 290.164062 509.378906 295.359375 504.179688 301.769531 504.179688 L 462.824219 504.179688 C 469.234375 504.179688 474.429688 509.378906 474.429688 515.789062 C 474.429688 522.203125 469.234375 527.398438 462.824219 527.398438 " fill-opacity="1" fill-rule="nonzero"/><path fill="#e8d6c8" d="M 404.257812 559.351562 L 301.769531 559.351562 C 295.359375 559.351562 290.164062 554.152344 290.164062 547.738281 C 290.164062 541.328125 295.359375 536.132812 301.769531 536.132812 L 404.257812 536.132812 C 410.667969 536.132812 415.863281 541.328125 415.863281 547.738281 C 415.863281 554.152344 410.667969 559.351562 404.257812 559.351562 " fill-opacity="1" fill-rule="nonzero"/><path fill="#e8d6c8" d="M 432.265625 591.300781 L 301.769531 591.300781 C 295.359375 591.300781 290.164062 586.101562 290.164062 579.691406 C 290.164062 573.28125 295.359375 568.082031 301.769531 568.082031 L 432.265625 568.082031 C 438.675781 568.082031 443.875 573.28125 443.875 579.691406 C 443.875 586.101562 438.675781 591.300781 432.265625 591.300781 " fill-opacity="1" fill-rule="nonzero"/><path fill="#e8d6c8" d="M 462.824219 655.203125 L 301.769531 655.203125 C 295.359375 655.203125 290.164062 650.003906 290.164062 643.589844 C 290.164062 637.179688 295.359375 631.984375 301.769531 631.984375 L 462.824219 631.984375 C 469.234375 631.984375 474.429688 637.179688 474.429688 643.589844 C 474.429688 650.003906 469.234375 655.203125 462.824219 655.203125 " fill-opacity="1" fill-rule="nonzero"/><path fill="#4c221f" d="M 217.886719 623.65625 C 211.863281 619.414062 210.421875 611.09375 214.660156 605.070312 L 266.257812 531.789062 L 288.070312 547.152344 L 236.46875 620.429688 C 232.226562 626.453125 223.90625 627.898438 217.886719 623.65625 " fill-opacity="1" fill-rule="nonzero"/><path fill="#310d12" d="M 287.328125 562.097656 L 252.441406 537.523438 L 265.308594 519.246094 L 300.195312 543.820312 L 287.328125 562.097656 " fill-opacity="1" fill-rule="nonzero"/><path fill="#4c221f" d="M 373.777344 514.71875 C 353.191406 543.953125 312.800781 550.964844 283.570312 530.371094 C 254.335938 509.785156 247.328125 469.390625 267.914062 440.152344 C 288.503906 410.917969 328.890625 403.90625 358.121094 424.496094 C 387.355469 445.085938 394.363281 485.480469 373.777344 514.71875 Z M 362.890625 417.726562 C 329.917969 394.5 284.367188 402.410156 261.144531 435.382812 C 237.925781 468.363281 245.832031 513.921875 278.800781 537.144531 C 311.773438 560.367188 357.328125 552.460938 380.546875 519.484375 C 403.765625 486.507812 395.863281 440.949219 362.890625 417.726562 " fill-opacity="1" fill-rule="nonzero"/><path fill="#ffffff" d="M 939.011719 707.289062 L 912.476562 735.308594 L 881.96875 725.8125 L 898.476562 694.558594 L 939.011719 707.289062 " fill-opacity="1" fill-rule="nonzero"/><path fill="#310d12" d="M 883.917969 725.007812 L 912.078125 733.769531 L 936.550781 707.933594 L 899.144531 696.179688 Z M 912.476562 736.652344 C 912.34375 736.652344 912.207031 736.636719 912.078125 736.59375 L 881.570312 727.101562 C 881.1875 726.980469 880.878906 726.699219 880.726562 726.328125 C 880.570312 725.957031 880.589844 725.539062 880.777344 725.183594 L 897.285156 693.929688 C 897.589844 693.351562 898.261719 693.074219 898.882812 693.269531 L 939.417969 706.003906 C 939.863281 706.144531 940.203125 706.503906 940.316406 706.953125 C 940.4375 707.402344 940.3125 707.882812 939.992188 708.21875 L 913.457031 736.234375 C 913.199219 736.507812 912.84375 736.652344 912.476562 736.652344 " fill-opacity="1" fill-rule="nonzero"/><path fill="#ffffff" d="M 955.277344 719.089844 C 955.066406 719.117188 954.847656 719.132812 954.644531 719.132812 C 953.390625 719.132812 952.191406 718.605469 951.355469 717.648438 L 945.976562 711.457031 L 935.675781 712.496094 L 936.214844 713.332031 C 937.320312 715.019531 936.175781 717.269531 934.164062 717.378906 L 932.265625 717.484375 C 928.261719 717.699219 924.308594 716.515625 921.085938 714.128906 L 908.710938 704.96875 L 896.789062 718.171875 L 926.925781 734.71875 C 929.390625 736.066406 930.566406 738.964844 929.742188 741.664062 C 928.960938 744.160156 926.667969 745.84375 924.082031 745.84375 C 923.929688 745.84375 923.769531 745.84375 923.621094 745.832031 L 910.324219 744.792969 L 878.261719 740.75 L 747.242188 774.203125 L 709.894531 642.074219 L 715.113281 640.550781 L 720.816406 638.894531 L 773.484375 623.5625 L 775.652344 633.148438 L 779.820312 651.621094 L 792.925781 709.675781 L 875.335938 705.671875 L 902.804688 683.136719 L 915.773438 684.984375 L 929.082031 685.996094 L 936.484375 694.910156 L 945.058594 696.179688 L 957.988281 712.078125 C 960.09375 714.667969 958.59375 718.578125 955.277344 719.089844 " fill-opacity="1" fill-rule="nonzero"/><path fill="#310d12" d="M 779.820312 651.621094 L 722.285156 678.769531 L 715.113281 640.550781 L 714.910156 639.515625 L 720.816406 638.894531 L 775.652344 633.148438 L 779.820312 651.621094 " fill-opacity="1" fill-rule="nonzero"/><path fill="#310d12" d="M 711.554688 643 L 748.183594 772.570312 L 877.933594 739.441406 C 878.097656 739.398438 878.269531 739.386719 878.433594 739.410156 L 910.496094 743.460938 L 923.71875 744.484375 C 925.871094 744.644531 927.8125 743.324219 928.449219 741.265625 C 929.085938 739.195312 928.175781 736.941406 926.277344 735.902344 L 896.136719 719.355469 C 895.777344 719.15625 895.523438 718.804688 895.457031 718.398438 C 895.386719 717.992188 895.507812 717.578125 895.785156 717.269531 L 907.707031 704.074219 C 908.171875 703.558594 908.957031 703.480469 909.511719 703.890625 L 921.882812 713.050781 C 924.847656 715.246094 928.511719 716.34375 932.191406 716.140625 L 934.089844 716.035156 C 934.753906 715.996094 935.058594 715.535156 935.160156 715.339844 C 935.257812 715.140625 935.449219 714.625 935.089844 714.070312 L 934.546875 713.234375 C 934.292969 712.839844 934.257812 712.34375 934.460938 711.917969 C 934.664062 711.496094 935.074219 711.207031 935.542969 711.160156 L 945.84375 710.117188 C 946.28125 710.082031 946.710938 710.246094 946.996094 710.574219 L 952.378906 716.761719 C 953.050781 717.539062 954.058594 717.902344 955.078125 717.753906 C 956.144531 717.589844 957.019531 716.886719 957.410156 715.878906 C 957.796875 714.867188 957.625 713.761719 956.941406 712.921875 L 944.339844 697.433594 L 936.289062 696.238281 C 935.960938 696.191406 935.664062 696.019531 935.449219 695.769531 L 928.410156 687.292969 L 915.667969 686.332031 L 903.199219 684.554688 L 876.1875 706.714844 C 875.96875 706.898438 875.6875 707.003906 875.398438 707.019531 L 792.988281 711.03125 C 792.335938 711.070312 791.75 710.621094 791.605469 709.980469 L 772.476562 625.253906 Z M 747.238281 775.550781 C 746.648438 775.550781 746.113281 775.164062 745.941406 774.570312 L 708.59375 642.445312 C 708.394531 641.730469 708.804688 640.988281 709.515625 640.78125 L 773.101562 622.261719 C 773.457031 622.15625 773.839844 622.207031 774.164062 622.394531 C 774.480469 622.582031 774.710938 622.898438 774.789062 623.257812 L 793.988281 708.28125 L 874.824219 704.347656 L 901.949219 682.09375 C 902.242188 681.855469 902.613281 681.742188 902.996094 681.800781 L 915.960938 683.652344 L 929.179688 684.648438 C 929.546875 684.671875 929.882812 684.847656 930.117188 685.128906 L 937.195312 693.648438 L 945.25 694.84375 C 945.585938 694.894531 945.886719 695.066406 946.097656 695.328125 L 959.03125 711.222656 C 960.332031 712.820312 960.667969 714.921875 959.921875 716.847656 C 959.183594 718.773438 957.523438 720.105469 955.484375 720.417969 C 953.546875 720.71875 951.621094 720.007812 950.339844 718.53125 L 945.417969 712.871094 L 937.832031 713.636719 C 938.117188 714.59375 938.035156 715.628906 937.5625 716.558594 C 936.914062 717.835938 935.671875 718.648438 934.238281 718.726562 L 932.339844 718.832031 C 928.027344 719.085938 923.746094 717.785156 920.277344 715.214844 L 908.890625 706.789062 L 898.929688 717.8125 L 927.574219 733.535156 C 930.589844 735.191406 932.039062 738.777344 931.027344 742.0625 C 930.019531 745.335938 926.925781 747.433594 923.511719 747.171875 L 910.226562 746.144531 L 878.351562 742.117188 L 747.574219 775.507812 C 747.460938 775.539062 747.347656 775.550781 747.238281 775.550781 " fill-opacity="1" fill-rule="nonzero"/><path fill="#310d12" d="M 945.980469 712.808594 C 945.554688 712.808594 945.132812 712.605469 944.871094 712.226562 L 936.1875 699.648438 C 935.765625 699.03125 935.917969 698.191406 936.53125 697.769531 C 937.144531 697.347656 937.984375 697.5 938.40625 698.113281 L 947.089844 710.691406 C 947.511719 711.304688 947.359375 712.144531 946.746094 712.566406 C 946.511719 712.730469 946.242188 712.808594 945.980469 712.808594 " fill-opacity="1" fill-rule="nonzero"/><path fill="#310d12" d="M 935.679688 713.851562 C 935.269531 713.851562 934.863281 713.664062 934.601562 713.3125 L 918.550781 691.976562 C 918.101562 691.378906 918.222656 690.53125 918.816406 690.085938 C 919.414062 689.636719 920.257812 689.757812 920.703125 690.351562 L 936.753906 711.6875 C 937.203125 712.285156 937.085938 713.128906 936.488281 713.578125 C 936.242188 713.761719 935.960938 713.851562 935.679688 713.851562 " fill-opacity="1" fill-rule="nonzero"/><path fill="#f25d27" d="M 727.097656 500.023438 L 739.398438 502.363281 C 748.933594 504.175781 756.621094 511.226562 759.246094 520.570312 L 792.921875 640.226562 L 727.097656 652.882812 L 727.097656 500.023438 " fill-opacity="1" fill-rule="nonzero"/><path fill="#f25d27" d="M 551.859375 509.335938 L 640.136719 482.171875 L 733.351562 501.308594 L 745.699219 774.203125 L 516.671875 774.203125 L 551.859375 509.335938 " fill-opacity="1" fill-rule="nonzero"/><path fill="#ffffff" d="M 691.988281 493.089844 C 653.414062 533.332031 604.667969 493.089844 604.667969 493.089844 L 620.378906 425.054688 L 686.433594 436.167969 C 686.433594 436.167969 684.046875 443.707031 682.847656 453.632812 C 681.847656 461.683594 681.660156 471.324219 684.167969 479.765625 C 685.664062 484.835938 688.132812 489.460938 691.988281 493.089844 " fill-opacity="1" fill-rule="nonzero"/><path fill="#310d12" d="M 684.167969 479.765625 L 638.082031 447.199219 L 682.847656 453.632812 C 681.847656 461.683594 681.660156 471.324219 684.167969 479.765625 " fill-opacity="1" fill-rule="nonzero"/><path fill="#310d12" d="M 606.179688 492.554688 C 608.902344 494.644531 619.929688 502.664062 634.324219 506.902344 C 655.90625 513.261719 674.660156 508.617188 690.089844 493.101562 C 674.585938 476.964844 682.597656 444.660156 684.707031 437.25 L 621.410156 426.597656 Z M 652.359375 512.214844 C 626.171875 512.214844 604.144531 494.394531 603.816406 494.125 C 603.421875 493.800781 603.246094 493.277344 603.359375 492.78125 L 619.066406 424.757812 C 619.226562 424.0625 619.902344 423.617188 620.605469 423.730469 L 686.65625 434.84375 C 687.042969 434.90625 687.382812 435.136719 687.585938 435.46875 C 687.789062 435.804688 687.839844 436.210938 687.71875 436.582031 C 687.597656 436.96875 675.535156 475.792969 692.914062 492.101562 C 693.175781 492.34375 693.328125 492.6875 693.339844 493.050781 C 693.347656 493.40625 693.210938 493.753906 692.964844 494.015625 C 679.878906 507.664062 665.585938 512.214844 652.359375 512.214844 " fill-opacity="1" fill-rule="nonzero"/><path fill="#ffffff" d="M 805.535156 746.503906 C 805.535156 747.382812 805.25 748.273438 804.640625 749.027344 C 803.660156 750.253906 802.054688 750.808594 800.515625 750.417969 L 800.246094 750.347656 L 794.679688 756.847656 C 793.667969 758.035156 792.214844 758.65625 790.742188 758.65625 C 789.878906 758.65625 789.015625 758.441406 788.222656 757.996094 L 785.171875 761.015625 C 782.261719 763.902344 777.972656 764.914062 774.078125 763.632812 L 736.820312 751.28125 L 716.867188 765.871094 C 712.324219 769.1875 706.886719 771.050781 701.265625 771.226562 L 516.597656 776.78125 C 489.15625 777.605469 467.664062 753.382812 471.765625 726.238281 L 483.683594 647.375 L 486 632 L 486.582031 628.183594 L 551.25 623.5625 L 549.292969 636.871094 L 544.128906 672.066406 L 537.65625 716.164062 L 684.964844 737.847656 L 735.664062 721.179688 L 750.019531 719.101562 L 760.011719 719.332031 L 803.429688 742.957031 C 804.792969 743.703125 805.535156 745.089844 805.535156 746.503906 " fill-opacity="1" fill-rule="nonzero"/><path fill="#310d12" d="M 549.292969 636.871094 L 544.128906 672.066406 L 483.683594 647.375 L 486 632 L 549.292969 636.871094 " fill-opacity="1" fill-rule="nonzero"/><path fill="#310d12" d="M 487.75 629.457031 L 473.101562 726.433594 C 471.203125 738.972656 474.945312 751.613281 483.359375 761.101562 C 491.773438 770.59375 503.871094 775.820312 516.550781 775.433594 L 701.222656 769.875 C 706.59375 769.710938 711.730469 767.953125 716.066406 764.777344 L 736.027344 750.191406 C 736.382812 749.933594 736.839844 749.867188 737.25 750.003906 L 774.496094 762.347656 C 777.925781 763.484375 781.652344 762.605469 784.222656 760.0625 L 787.265625 757.039062 C 787.695312 756.613281 788.355469 756.527344 788.875 756.820312 C 790.464844 757.714844 792.476562 757.359375 793.660156 755.976562 L 799.230469 749.480469 C 799.5625 749.09375 800.082031 748.925781 800.578125 749.046875 L 800.84375 749.113281 C 801.863281 749.363281 802.941406 749 803.59375 748.183594 C 804.09375 747.558594 804.292969 746.757812 804.132812 745.972656 C 803.972656 745.191406 803.484375 744.523438 802.78125 744.140625 L 759.652344 720.671875 L 750.101562 720.453125 L 735.976562 722.503906 L 685.390625 739.132812 C 685.191406 739.199219 684.980469 739.21875 684.773438 739.1875 L 537.464844 717.503906 C 536.730469 717.394531 536.21875 716.707031 536.328125 715.96875 L 549.664062 625.019531 Z M 515.25 778.152344 C 502.277344 778.152344 489.984375 772.640625 481.34375 762.894531 C 472.394531 752.800781 468.417969 739.367188 470.433594 726.03125 L 485.242188 627.984375 C 485.339844 627.363281 485.851562 626.886719 486.480469 626.84375 L 551.144531 622.210938 C 551.5625 622.183594 551.953125 622.339844 552.230469 622.640625 C 552.507812 622.9375 552.632812 623.347656 552.574219 623.753906 L 539.191406 715.027344 L 684.851562 736.472656 L 735.246094 719.902344 C 735.320312 719.875 735.394531 719.859375 735.472656 719.847656 L 749.824219 717.765625 C 749.898438 717.753906 749.972656 717.75 750.050781 717.75 L 760.042969 717.984375 C 760.253906 717.988281 760.464844 718.046875 760.652344 718.148438 L 804.070312 741.773438 C 805.476562 742.535156 806.460938 743.875 806.777344 745.441406 C 807.089844 747.007812 806.699219 748.621094 805.703125 749.871094 C 804.511719 751.359375 802.621094 752.089844 800.757812 751.839844 L 795.710938 757.730469 C 793.917969 759.816406 791.027344 760.53125 788.503906 759.609375 L 786.117188 761.972656 C 782.828125 765.242188 778.050781 766.367188 773.648438 764.90625 L 737.058594 752.78125 L 717.660156 766.957031 C 712.878906 770.453125 707.222656 772.390625 701.304688 772.570312 L 516.628906 778.132812 C 516.171875 778.144531 515.710938 778.152344 515.25 778.152344 " fill-opacity="1" fill-rule="nonzero"/><path fill="#310d12" d="M 800.25 751.703125 C 800.027344 751.703125 799.796875 751.648438 799.585938 751.527344 L 757.6875 727.679688 C 757.039062 727.3125 756.8125 726.488281 757.179688 725.84375 C 757.550781 725.191406 758.375 724.96875 759.019531 725.335938 L 800.917969 749.183594 C 801.566406 749.554688 801.792969 750.375 801.421875 751.019531 C 801.175781 751.460938 800.71875 751.703125 800.25 751.703125 " fill-opacity="1" fill-rule="nonzero"/><path fill="#310d12" d="M 788.214844 759.347656 C 787.972656 759.347656 787.730469 759.28125 787.507812 759.144531 L 749.3125 735.683594 C 748.679688 735.292969 748.476562 734.464844 748.871094 733.828125 C 749.261719 733.191406 750.089844 732.996094 750.726562 733.382812 L 788.917969 756.847656 C 789.558594 757.234375 789.753906 758.066406 789.367188 758.703125 C 789.109375 759.117188 788.667969 759.347656 788.214844 759.347656 " fill-opacity="1" fill-rule="nonzero"/><path fill="#f25d27" d="M 471.265625 640.425781 L 553.710938 652.882812 L 576.652344 501.707031 L 534.019531 514.628906 C 516.113281 520.058594 502.160156 534.171875 496.933594 552.140625 L 471.265625 640.425781 " fill-opacity="1" fill-rule="nonzero"/><path fill="#310d12" d="M 553.710938 654.234375 C 553.644531 654.234375 553.578125 654.226562 553.507812 654.21875 L 482.324219 643.460938 C 481.585938 643.351562 481.078125 642.664062 481.191406 641.929688 C 481.304688 641.191406 481.992188 640.699219 482.726562 640.796875 L 552.578125 651.351562 L 563.414062 579.945312 C 563.527344 579.207031 564.21875 578.703125 564.949219 578.816406 C 565.6875 578.925781 566.191406 579.613281 566.082031 580.351562 L 555.046875 653.085938 C 554.941406 653.753906 554.367188 654.234375 553.710938 654.234375 " fill-opacity="1" fill-rule="nonzero"/><path fill="#4c221f" d="M 624.703125 435.863281 L 579.636719 354.984375 C 579.636719 354.984375 568.527344 303.121094 624.703125 303.738281 C 645.691406 274.722656 759.898438 269.15625 732.734375 369.800781 C 653.097656 371.652344 653.097656 371.652344 653.097656 371.652344 L 638.402344 442.039062 L 624.703125 435.863281 " fill-opacity="1" fill-rule="nonzero"/><path fill="#ffffff" d="M 729.183594 363.695312 C 729.183594 363.695312 725.480469 445.894531 700.015625 461.175781 C 674.550781 476.457031 619.488281 434.609375 619.488281 434.609375 L 627.460938 401.171875 L 643.53125 393.574219 L 644.457031 353.285156 L 709.894531 342.171875 C 709.894531 342.171875 714.832031 359.75 729.183594 363.695312 " fill-opacity="1" fill-rule="nonzero"/><path fill="#310d12" d="M 619.886719 424.25 C 619.824219 424.25 619.757812 424.25 619.695312 424.238281 C 618.957031 424.132812 618.445312 423.449219 618.550781 422.710938 L 621.644531 401.125 C 621.75 400.382812 622.4375 399.875 623.171875 399.980469 C 623.90625 400.085938 624.417969 400.769531 624.3125 401.507812 L 621.21875 423.09375 C 621.125 423.765625 620.546875 424.25 619.886719 424.25 " fill-opacity="1" fill-rule="nonzero"/><path fill="#310d12" d="M 686.414062 465.871094 C 670.644531 465.875 651.050781 456.507812 635.609375 447.300781 C 634.964844 446.921875 634.757812 446.09375 635.136719 445.453125 C 635.519531 444.8125 636.347656 444.605469 636.988281 444.984375 C 653.363281 454.742188 683.242188 469.671875 699.320312 460.019531 C 722.597656 446.054688 727.335938 372.695312 727.796875 364.394531 C 727.566406 364.070312 727.484375 363.648438 727.605469 363.238281 C 727.8125 362.523438 728.554688 362.109375 729.277344 362.320312 L 729.539062 362.394531 C 730.148438 362.5625 730.558594 363.128906 730.53125 363.757812 C 730.378906 367.144531 726.496094 446.859375 700.707031 462.335938 C 696.578125 464.8125 691.710938 465.871094 686.414062 465.871094 " fill-opacity="1" fill-rule="nonzero"/><path fill="#ffffff" d="M 641.9375 402.484375 C 641.9375 413.140625 633.804688 421.78125 623.773438 421.78125 C 613.738281 421.78125 605.605469 413.140625 605.605469 402.484375 C 605.605469 391.828125 613.738281 383.191406 623.773438 383.191406 C 633.804688 383.191406 641.9375 391.828125 641.9375 402.484375 " fill-opacity="1" fill-rule="nonzero"/><path fill="#310d12" d="M 623.773438 423.128906 C 613.011719 423.128906 604.257812 413.867188 604.257812 402.484375 C 604.257812 391.105469 613.011719 381.84375 623.773438 381.84375 C 632.25 381.84375 639.707031 387.566406 642.332031 396.085938 C 642.550781 396.800781 642.152344 397.550781 641.441406 397.773438 C 640.722656 397.992188 639.972656 397.589844 639.753906 396.882812 C 637.480469 389.496094 631.058594 384.542969 623.773438 384.542969 C 614.5 384.542969 606.953125 392.589844 606.953125 402.484375 C 606.953125 412.382812 614.5 420.429688 623.773438 420.429688 C 625.828125 420.429688 627.832031 420.042969 629.734375 419.269531 C 630.425781 418.988281 631.214844 419.324219 631.492188 420.011719 C 631.769531 420.703125 631.4375 421.492188 630.746094 421.769531 C 628.519531 422.667969 626.175781 423.128906 623.773438 423.128906 " fill-opacity="1" fill-rule="nonzero"/><path fill="#310d12" d="M 622.148438 394.617188 C 622.148438 397.226562 620.035156 399.339844 617.429688 399.339844 C 614.824219 399.339844 612.707031 397.226562 612.707031 394.617188 C 612.707031 392.011719 614.824219 389.898438 617.429688 389.898438 C 620.035156 389.898438 622.148438 392.011719 622.148438 394.617188 " fill-opacity="1" fill-rule="nonzero"/><path fill="#310d12" d="M 686.066406 391.40625 C 686.066406 394.839844 684.460938 397.625 682.480469 397.625 C 680.5 397.625 678.894531 394.839844 678.894531 391.40625 C 678.894531 387.972656 680.5 385.1875 682.480469 385.1875 C 684.460938 385.1875 686.066406 387.972656 686.066406 391.40625 " fill-opacity="1" fill-rule="nonzero"/><path fill="#310d12" d="M 714.964844 392.488281 C 714.964844 395.730469 713.449219 398.359375 711.578125 398.359375 C 709.707031 398.359375 708.191406 395.730469 708.191406 392.488281 C 708.191406 389.246094 709.707031 386.617188 711.578125 386.617188 C 713.449219 386.617188 714.964844 389.246094 714.964844 392.488281 " fill-opacity="1" fill-rule="nonzero"/><path fill="#310d12" d="M 698.121094 387.78125 L 698.136719 387.78125 Z M 696.773438 418.535156 C 696.148438 418.535156 695.582031 418.097656 695.453125 417.457031 C 695.308594 416.726562 695.777344 416.011719 696.503906 415.867188 L 709.476562 413.230469 C 695.425781 388.816406 695.425781 388.21875 695.425781 387.78125 C 695.425781 387.039062 696.03125 386.433594 696.777344 386.433594 C 697.40625 386.433594 697.933594 386.867188 698.082031 387.453125 C 698.738281 389.027344 707.386719 404.203125 712.75 413.507812 C 712.964844 413.878906 712.984375 414.335938 712.808594 414.730469 C 712.628906 415.128906 712.273438 415.410156 711.847656 415.5 L 697.042969 418.511719 C 696.953125 418.527344 696.863281 418.535156 696.773438 418.535156 " fill-opacity="1" fill-rule="nonzero"/><path fill="#310d12" d="M 696.003906 435.207031 C 695.980469 435.207031 695.957031 435.207031 695.933594 435.207031 C 682.171875 434.5 677.046875 425.910156 675.359375 423.085938 C 675.179688 422.78125 675.046875 422.546875 674.949219 422.421875 C 674.421875 421.894531 674.441406 421.0625 674.96875 420.535156 C 675.496094 420.011719 676.367188 420.027344 676.894531 420.558594 C 677.140625 420.800781 677.339844 421.140625 677.675781 421.703125 C 679.339844 424.488281 683.75 431.882812 696.070312 432.511719 C 696.816406 432.550781 697.386719 433.179688 697.347656 433.925781 C 697.3125 434.648438 696.71875 435.207031 696.003906 435.207031 " fill-opacity="1" fill-rule="nonzero"/><path fill="#310d12" d="M 684.773438 373.96875 C 685.296875 375.308594 682.75 377.550781 679.085938 378.976562 C 675.417969 380.40625 672.027344 380.472656 671.503906 379.132812 C 670.984375 377.792969 673.53125 375.546875 677.195312 374.121094 C 680.859375 372.695312 684.25 372.628906 684.773438 373.96875 " fill-opacity="1" fill-rule="nonzero"/><path fill="#310d12" d="M 720.730469 379.34375 C 720.167969 380.667969 716.777344 380.488281 713.160156 378.945312 C 709.546875 377.402344 707.070312 375.078125 707.636719 373.753906 C 708.199219 372.433594 711.589844 372.609375 715.207031 374.15625 C 718.820312 375.699219 721.292969 378.019531 720.730469 379.34375 " fill-opacity="1" fill-rule="nonzero"/><path fill="#310d12" d="M 826.875 660.601562 L 806.96875 660.601562 L 806.96875 477.847656 L 826.875 477.847656 L 826.875 660.601562 " fill-opacity="1" fill-rule="nonzero"/><path fill="#4c221f" d="M 1124.113281 660.601562 L 821.625 660.601562 L 821.625 477.847656 L 1124.113281 477.847656 L 1124.113281 660.601562 " fill-opacity="1" fill-rule="nonzero"/><path fill="#4c221f" d="M 1011.761719 784.699219 L 972.871094 784.699219 L 972.871094 569.226562 L 1011.761719 569.226562 L 1011.761719 784.699219 " fill-opacity="1" fill-rule="nonzero"/><path fill="#310d12" d="M 972.871094 784.699219 L 962.761719 784.699219 L 962.761719 569.226562 L 972.871094 569.226562 L 972.871094 784.699219 " fill-opacity="1" fill-rule="nonzero"/><path fill="#310d12" d="M 1103.125 768.957031 L 845.085938 768.957031 L 845.085938 747.269531 L 1103.125 747.269531 L 1103.125 768.957031 " fill-opacity="1" fill-rule="nonzero"/><path fill="#4c221f" d="M 1181.785156 798.589844 L 363.007812 798.589844 L 363.007812 768.957031 L 1181.785156 768.957031 L 1181.785156 798.589844 " fill-opacity="1" fill-rule="nonzero"/><path fill="#310d12" d="M 740.011719 649.875 C 739.292969 649.875 738.699219 649.3125 738.664062 648.585938 L 735.570312 580.210938 C 735.535156 579.464844 736.113281 578.835938 736.855469 578.800781 C 737.550781 578.757812 738.230469 579.34375 738.265625 580.089844 L 741.359375 648.464844 C 741.390625 649.210938 740.816406 649.839844 740.070312 649.875 C 740.050781 649.875 740.03125 649.875 740.011719 649.875 " fill-opacity="1" fill-rule="nonzero"/><path fill="#ffffff" d="M 752.25 239.160156 C 749.683594 236.59375 749.683594 232.4375 752.25 229.875 C 754.8125 227.308594 758.972656 227.308594 761.535156 229.875 C 764.097656 232.4375 764.097656 236.59375 761.535156 239.160156 C 758.972656 241.722656 754.8125 241.722656 752.25 239.160156 Z M 840.785156 172.128906 C 840.503906 170.183594 838.09375 169.417969 836.707031 170.804688 L 827.144531 180.371094 C 826.042969 181.46875 824.261719 181.46875 823.160156 180.371094 L 810.535156 167.742188 C 809.4375 166.640625 809.4375 164.855469 810.535156 163.753906 L 822.507812 151.785156 C 823.726562 150.5625 823.316406 148.453125 821.699219 147.851562 C 815.414062 145.5 808.683594 145.773438 803.167969 149.21875 C 793.671875 155.15625 791.042969 168.453125 796.492188 180.25 L 746.222656 227.484375 C 741.164062 232.242188 741.035156 240.246094 745.953125 245.160156 C 750.863281 250.074219 758.867188 249.949219 763.625 244.882812 L 810.5 194.980469 C 817.472656 198.460938 825.320312 198.648438 831.597656 194.726562 C 838.867188 190.183594 842.105469 181.328125 840.785156 172.128906 " fill-opacity="1" fill-rule="nonzero"/><path fill="#310d12" d="M 756.890625 229.300781 C 755.558594 229.300781 754.21875 229.808594 753.203125 230.824219 C 752.21875 231.8125 751.675781 233.121094 751.675781 234.515625 C 751.675781 235.910156 752.21875 237.21875 753.203125 238.203125 C 755.238281 240.242188 758.546875 240.238281 760.582031 238.203125 C 761.566406 237.21875 762.109375 235.910156 762.109375 234.515625 C 762.109375 233.121094 761.566406 231.8125 760.582031 230.824219 C 759.5625 229.808594 758.226562 229.300781 756.890625 229.300781 Z M 756.890625 242.425781 C 754.867188 242.425781 752.839844 241.65625 751.296875 240.109375 C 749.800781 238.617188 748.980469 236.628906 748.980469 234.515625 C 748.980469 232.402344 749.800781 230.414062 751.296875 228.917969 C 754.382812 225.832031 759.40625 225.835938 762.488281 228.917969 C 763.980469 230.414062 764.804688 232.402344 764.804688 234.515625 C 764.804688 236.628906 763.980469 238.617188 762.488281 240.109375 C 760.945312 241.65625 758.917969 242.425781 756.890625 242.425781 Z M 813.535156 147.679688 C 810.058594 147.679688 806.734375 148.582031 803.882812 150.363281 C 795.164062 155.8125 792.511719 168.421875 797.71875 179.683594 C 797.960938 180.210938 797.839844 180.835938 797.417969 181.234375 L 747.148438 228.464844 C 744.96875 230.515625 743.742188 233.292969 743.695312 236.28125 C 743.648438 239.277344 744.789062 242.089844 746.902344 244.207031 C 749.019531 246.320312 751.84375 247.433594 754.824219 247.414062 C 757.816406 247.367188 760.59375 246.144531 762.640625 243.960938 L 809.519531 194.054688 C 809.925781 193.621094 810.574219 193.503906 811.105469 193.773438 C 817.878906 197.15625 825.273438 197.082031 830.878906 193.582031 C 837.460938 189.46875 840.746094 181.320312 839.449219 172.320312 C 839.367188 171.765625 838.9375 171.566406 838.757812 171.503906 C 838.609375 171.453125 838.089844 171.328125 837.660156 171.757812 L 828.101562 181.320312 C 826.476562 182.945312 823.832031 182.945312 822.207031 181.324219 L 809.582031 168.695312 C 807.957031 167.070312 807.957031 164.425781 809.582031 162.804688 L 821.550781 150.828125 C 821.8125 150.570312 821.921875 150.199219 821.839844 149.835938 C 821.796875 149.636719 821.660156 149.273438 821.226562 149.113281 C 818.660156 148.15625 816.058594 147.679688 813.535156 147.679688 Z M 754.644531 250.113281 C 751 250.113281 747.582031 248.699219 744.996094 246.113281 C 742.363281 243.476562 740.941406 239.96875 741 236.242188 C 741.058594 232.515625 742.582031 229.054688 745.300781 226.5 L 794.875 179.921875 C 789.644531 167.65625 792.820312 154.101562 802.453125 148.078125 C 808.09375 144.550781 815.277344 144.011719 822.167969 146.585938 C 823.34375 147.027344 824.207031 148.027344 824.476562 149.265625 C 824.753906 150.527344 824.371094 151.824219 823.460938 152.734375 L 811.488281 164.710938 C 810.914062 165.28125 810.914062 166.214844 811.488281 166.785156 L 824.117188 179.414062 C 824.6875 179.988281 825.621094 179.988281 826.191406 179.414062 L 835.753906 169.851562 C 836.765625 168.839844 838.246094 168.492188 839.609375 168.945312 C 840.953125 169.394531 841.917969 170.542969 842.117188 171.9375 C 843.570312 182.007812 839.808594 191.179688 832.3125 195.867188 C 826.15625 199.714844 818.183594 199.976562 810.808594 196.621094 L 764.605469 245.808594 C 762.054688 248.527344 758.59375 250.054688 754.867188 250.109375 C 754.792969 250.109375 754.71875 250.113281 754.644531 250.113281 " fill-opacity="1" fill-rule="nonzero"/><path fill="#ffffff" d="M 753.46875 161.113281 L 743.121094 154.644531 L 735.359375 162.40625 L 741.484375 172.414062 L 752.902344 177.675781 L 794.0625 218.839844 L 799.542969 213.359375 L 758.398438 172.210938 L 753.46875 161.113281 " fill-opacity="1" fill-rule="nonzero"/><path fill="#310d12" d="M 742.417969 171.359375 L 753.46875 176.449219 C 753.613281 176.515625 753.742188 176.605469 753.859375 176.71875 L 794.0625 216.933594 L 797.636719 213.359375 L 757.445312 173.164062 C 757.328125 173.042969 757.234375 172.910156 757.167969 172.757812 L 752.402344 162.039062 L 743.3125 156.355469 L 737.0625 162.609375 Z M 794.0625 220.1875 C 793.71875 220.1875 793.375 220.054688 793.109375 219.792969 L 752.121094 178.796875 L 740.917969 173.640625 C 740.675781 173.53125 740.472656 173.347656 740.332031 173.121094 L 734.207031 163.109375 C 733.882812 162.578125 733.964844 161.894531 734.402344 161.453125 L 742.164062 153.691406 C 742.613281 153.25 743.300781 153.171875 743.832031 153.5 L 754.183594 159.96875 C 754.410156 160.113281 754.589844 160.320312 754.699219 160.566406 L 759.53125 171.433594 L 800.496094 212.40625 C 801.023438 212.933594 801.023438 213.785156 800.496094 214.3125 L 795.019531 219.792969 C 794.753906 220.054688 794.410156 220.1875 794.0625 220.1875 " fill-opacity="1" fill-rule="nonzero"/><path fill="#ffffff" d="M 825.910156 245.210938 C 821.074219 250.042969 813.203125 249.933594 808.507812 244.964844 L 766.179688 200.207031 L 781.242188 185.136719 L 825.664062 227.804688 C 830.632812 232.503906 830.742188 240.375 825.910156 245.210938 " fill-opacity="1" fill-rule="nonzero"/><path fill="#310d12" d="M 768.058594 200.234375 L 809.488281 244.039062 C 811.503906 246.175781 814.238281 247.371094 817.175781 247.417969 C 820.121094 247.46875 822.878906 246.335938 824.957031 244.257812 C 827.035156 242.179688 828.15625 239.414062 828.113281 236.472656 C 828.070312 233.535156 826.875 230.804688 824.738281 228.785156 L 781.265625 187.027344 Z M 817.332031 250.113281 C 817.269531 250.113281 817.203125 250.113281 817.140625 250.109375 C 813.464844 250.058594 810.050781 248.5625 807.527344 245.890625 L 765.195312 201.132812 C 764.695312 200.601562 764.707031 199.769531 765.226562 199.253906 L 780.292969 184.183594 C 780.808594 183.664062 781.648438 183.65625 782.179688 184.164062 L 826.597656 226.832031 C 829.261719 229.351562 830.757812 232.761719 830.808594 236.433594 C 830.863281 240.109375 829.460938 243.5625 826.863281 246.164062 C 824.3125 248.714844 820.933594 250.113281 817.332031 250.113281 " fill-opacity="1" fill-rule="nonzero"/><path fill="#310d12" d="M 953.429688 241.027344 L 929.351562 225.742188 L 944.089844 225.742188 L 953.429688 230.328125 Z M 944.089844 225.742188 L 929.351562 225.742188 L 953.429688 210.492188 L 953.429688 221.460938 L 944.089844 225.742188 " fill-opacity="1" fill-rule="nonzero"/><path fill="#310d12" d="M 976.859375 257.734375 L 968.03125 257.734375 L 990.105469 193.136719 L 998.933594 193.136719 L 976.859375 257.734375 " fill-opacity="1" fill-rule="nonzero"/><path fill="#310d12" d="M 1020.667969 225.742188 L 1035.40625 225.742188 L 1011.328125 241.027344 L 1011.328125 230.328125 Z M 1011.328125 210.492188 L 1035.40625 225.742188 L 1020.667969 225.742188 L 1011.328125 221.460938 L 1011.328125 210.492188 " fill-opacity="1" fill-rule="nonzero"/><path fill="#310d12" d="M 1048.375 348.238281 L 1055.609375 348.238281 L 1047.183594 397.625 L 1039.953125 397.625 Z M 1032.277344 348.238281 L 1039.511719 348.238281 L 1031.089844 397.625 L 1023.855469 397.625 Z M 1059.71875 360.230469 L 1059.71875 367.667969 L 1022.398438 367.667969 L 1022.398438 360.230469 Z M 1057.714844 378.195312 L 1057.714844 385.632812 L 1020.394531 385.632812 L 1020.394531 378.195312 L 1057.714844 378.195312 " fill-opacity="1" fill-rule="nonzero"/><path fill="#ffffff" d="M 829.011719 375.964844 C 815.90625 375.964844 805.285156 365.34375 805.285156 352.234375 C 805.285156 339.128906 815.90625 328.503906 829.011719 328.503906 C 842.117188 328.503906 852.742188 339.128906 852.742188 352.234375 C 852.742188 365.34375 842.117188 375.964844 829.011719 375.964844 Z M 863.875 347.605469 C 863.1875 341.269531 860.816406 335.441406 857.214844 330.578125 L 861.75 326.039062 L 855.203125 319.492188 L 850.773438 323.925781 C 845.933594 320.089844 840.0625 317.507812 833.640625 316.660156 L 833.640625 310.5625 L 824.382812 310.5625 L 824.382812 316.660156 C 817.964844 317.507812 812.09375 320.089844 807.253906 323.925781 L 802.820312 319.492188 L 796.273438 326.039062 L 800.808594 330.578125 C 797.207031 335.441406 794.839844 341.269531 794.152344 347.605469 L 787.34375 347.605469 L 787.34375 356.863281 L 794.363281 356.863281 C 795.316406 362.972656 797.84375 368.550781 801.515625 373.183594 L 796.273438 378.429688 L 802.820312 384.976562 L 808.167969 379.632812 C 812.824219 383.078125 818.363281 385.390625 824.382812 386.1875 L 824.382812 393.910156 L 833.640625 393.910156 L 833.640625 386.1875 C 839.664062 385.390625 845.203125 383.078125 849.855469 379.632812 L 855.203125 384.976562 L 861.75 378.429688 L 856.507812 373.183594 C 860.179688 368.550781 862.710938 362.972656 863.664062 356.863281 L 870.679688 356.863281 L 870.679688 347.605469 L 863.875 347.605469 " fill-opacity="1" fill-rule="nonzero"/><path fill="#ffffff" d="M 893.664062 398.5 C 886.5625 399.488281 880.003906 394.53125 879.015625 387.429688 C 878.027344 380.328125 882.984375 373.769531 890.085938 372.78125 C 897.183594 371.792969 903.746094 376.75 904.730469 383.851562 C 905.71875 390.953125 900.761719 397.511719 893.664062 398.5 Z M 918.46875 379.128906 C 917.25 374.28125 914.777344 370.007812 911.453125 366.617188 L 914.488281 362.601562 L 908.6875 358.21875 L 905.722656 362.144531 C 901.546875 359.6875 896.707031 358.316406 891.625 358.351562 L 890.964844 353.609375 L 883.769531 354.609375 L 884.429688 359.355469 C 879.53125 360.707031 875.246094 363.347656 871.902344 366.851562 L 867.976562 363.886719 L 863.59375 369.683594 L 867.613281 372.71875 C 865.339844 376.890625 864.125 381.675781 864.277344 386.675781 L 858.988281 387.410156 L 859.988281 394.609375 L 865.445312 393.847656 C 866.84375 398.492188 869.414062 402.554688 872.769531 405.757812 L 869.261719 410.402344 L 875.058594 414.78125 L 878.636719 410.050781 C 882.625 412.222656 887.183594 413.421875 891.949219 413.390625 L 892.78125 419.394531 L 899.980469 418.390625 L 899.144531 412.390625 C 903.738281 411.121094 907.792969 408.722656 911.035156 405.539062 L 915.769531 409.117188 L 920.152344 403.320312 L 915.511719 399.8125 C 917.863281 395.8125 919.226562 391.199219 919.304688 386.351562 L 924.761719 385.59375 L 923.761719 378.394531 L 918.46875 379.128906 " fill-opacity="1" fill-rule="nonzero"/><path fill="#ffffff" d="M 886.972656 337.972656 C 883.714844 337.972656 881.070312 335.328125 881.070312 332.066406 C 881.070312 328.804688 883.714844 326.164062 886.972656 326.164062 C 890.234375 326.164062 892.878906 328.804688 892.878906 332.066406 C 892.878906 335.328125 890.234375 337.972656 886.972656 337.972656 Z M 898.964844 334.839844 L 903.269531 334.378906 L 902.40625 326.351562 L 898.246094 326.800781 C 898.035156 326.324219 897.796875 325.859375 897.523438 325.410156 L 900.128906 322.179688 L 893.847656 317.113281 L 891.367188 320.1875 C 890.824219 319.976562 890.265625 319.800781 889.703125 319.664062 L 889.285156 315.769531 L 881.261719 316.628906 L 881.667969 320.390625 C 881.097656 320.644531 880.550781 320.9375 880.023438 321.273438 L 877.089844 318.910156 L 872.023438 325.191406 L 874.957031 327.558594 C 874.742188 328.144531 874.570312 328.742188 874.449219 329.351562 L 870.679688 329.753906 L 871.542969 337.777344 L 875.449219 337.359375 C 875.699219 337.878906 875.984375 338.378906 876.3125 338.863281 L 873.820312 341.953125 L 880.101562 347.019531 L 882.714844 343.777344 C 883.207031 343.945312 883.707031 344.078125 884.214844 344.183594 L 884.664062 348.363281 L 892.683594 347.5 L 892.222656 343.1875 C 892.652344 342.984375 893.070312 342.75 893.472656 342.492188 L 896.859375 345.222656 L 901.925781 338.941406 L 898.542969 336.214844 C 898.710938 335.761719 898.851562 335.304688 898.964844 334.839844 " fill-opacity="1" fill-rule="nonzero"/><path fill="#310d12" d="M 829.011719 329.851562 C 816.671875 329.851562 806.632812 339.894531 806.632812 352.234375 C 806.632812 364.578125 816.671875 374.621094 829.011719 374.621094 C 841.355469 374.621094 851.394531 364.578125 851.394531 352.234375 C 851.394531 339.894531 841.355469 329.851562 829.011719 329.851562 Z M 829.011719 377.316406 C 815.1875 377.316406 803.933594 366.066406 803.933594 352.234375 C 803.933594 338.40625 815.1875 327.15625 829.011719 327.15625 C 842.839844 327.15625 854.089844 338.40625 854.089844 352.234375 C 854.089844 366.066406 842.839844 377.316406 829.011719 377.316406 Z M 825.730469 392.5625 L 832.296875 392.5625 L 832.296875 386.1875 C 832.296875 385.511719 832.796875 384.9375 833.464844 384.851562 C 839.101562 384.109375 844.492188 381.929688 849.054688 378.546875 C 849.589844 378.148438 850.335938 378.203125 850.808594 378.679688 L 855.203125 383.070312 L 859.84375 378.429688 L 855.554688 374.140625 C 855.070312 373.65625 855.027344 372.882812 855.453125 372.347656 C 859.0625 367.789062 861.4375 362.363281 862.328125 356.660156 C 862.433594 356 862.996094 355.515625 863.664062 355.515625 L 869.332031 355.515625 L 869.332031 348.953125 L 863.871094 348.953125 C 863.183594 348.953125 862.605469 348.433594 862.53125 347.75 C 861.890625 341.828125 859.679688 336.167969 856.132812 331.378906 C 855.734375 330.84375 855.789062 330.09375 856.261719 329.621094 L 859.84375 326.039062 L 855.203125 321.398438 L 851.722656 324.878906 C 851.238281 325.363281 850.464844 325.410156 849.933594 324.980469 C 845.171875 321.207031 839.476562 318.792969 833.464844 318 C 832.796875 317.910156 832.296875 317.339844 832.296875 316.664062 L 832.296875 311.910156 L 825.730469 311.910156 L 825.730469 316.664062 C 825.730469 317.339844 825.230469 317.910156 824.558594 318 C 818.546875 318.792969 812.855469 321.207031 808.09375 324.980469 C 807.554688 325.40625 806.785156 325.363281 806.300781 324.878906 L 802.820312 321.398438 L 798.179688 326.039062 L 801.765625 329.621094 C 802.234375 330.09375 802.289062 330.84375 801.894531 331.378906 C 798.347656 336.167969 796.132812 341.828125 795.492188 347.75 C 795.417969 348.433594 794.839844 348.953125 794.152344 348.953125 L 788.691406 348.953125 L 788.691406 355.515625 L 794.363281 355.515625 C 795.027344 355.515625 795.59375 356 795.695312 356.660156 C 796.582031 362.363281 798.964844 367.789062 802.574219 372.347656 C 803 372.882812 802.953125 373.65625 802.46875 374.140625 L 798.179688 378.429688 L 802.820312 383.070312 L 807.214844 378.679688 C 807.6875 378.203125 808.433594 378.152344 808.96875 378.546875 C 813.535156 381.929688 818.925781 384.109375 824.558594 384.851562 C 825.230469 384.9375 825.730469 385.511719 825.730469 386.1875 Z M 833.640625 395.257812 L 824.382812 395.257812 C 823.636719 395.257812 823.03125 394.65625 823.03125 393.910156 L 823.03125 387.351562 C 817.757812 386.476562 812.710938 384.433594 808.3125 381.394531 L 803.777344 385.929688 C 803.25 386.457031 802.394531 386.457031 801.867188 385.929688 L 795.320312 379.382812 C 795.066406 379.128906 794.925781 378.785156 794.925781 378.429688 C 794.925781 378.074219 795.066406 377.730469 795.320312 377.476562 L 799.730469 373.066406 C 796.46875 368.660156 794.238281 363.570312 793.226562 358.214844 L 787.34375 358.214844 C 786.597656 358.214844 785.996094 357.609375 785.996094 356.863281 L 785.996094 347.605469 C 785.996094 346.859375 786.597656 346.253906 787.34375 346.253906 L 792.960938 346.253906 C 793.753906 340.679688 795.84375 335.355469 799.046875 330.722656 L 795.320312 326.996094 C 795.066406 326.742188 794.925781 326.398438 794.925781 326.039062 C 794.925781 325.683594 795.066406 325.339844 795.320312 325.085938 L 801.867188 318.539062 C 802.394531 318.011719 803.25 318.011719 803.777344 318.539062 L 807.371094 322.136719 C 812 318.714844 817.371094 316.4375 823.03125 315.5 L 823.03125 310.5625 C 823.03125 309.816406 823.636719 309.210938 824.382812 309.210938 L 833.640625 309.210938 C 834.390625 309.210938 834.988281 309.816406 834.988281 310.5625 L 834.988281 315.5 C 840.65625 316.4375 846.027344 318.714844 850.652344 322.136719 L 854.25 318.539062 C 854.777344 318.011719 855.628906 318.011719 856.15625 318.539062 L 862.707031 325.085938 C 862.957031 325.339844 863.101562 325.683594 863.101562 326.039062 C 863.101562 326.398438 862.957031 326.742188 862.707031 326.996094 L 858.976562 330.722656 C 862.183594 335.355469 864.269531 340.679688 865.0625 346.253906 L 870.679688 346.253906 C 871.425781 346.253906 872.03125 346.859375 872.03125 347.605469 L 872.03125 356.863281 C 872.03125 357.609375 871.425781 358.214844 870.679688 358.214844 L 864.796875 358.214844 C 863.785156 363.570312 861.554688 368.660156 858.296875 373.066406 L 862.707031 377.476562 C 862.957031 377.730469 863.101562 378.074219 863.101562 378.429688 C 863.101562 378.785156 862.957031 379.128906 862.707031 379.382812 L 856.15625 385.929688 C 855.628906 386.457031 854.777344 386.457031 854.25 385.929688 L 849.710938 381.394531 C 845.316406 384.433594 840.269531 386.476562 834.988281 387.351562 L 834.988281 393.910156 C 834.988281 394.65625 834.390625 395.257812 833.640625 395.257812 " fill-opacity="1" fill-rule="nonzero"/><path fill="#310d12" d="M 891.882812 374.003906 C 891.347656 374.003906 890.8125 374.042969 890.273438 374.117188 C 883.917969 375 879.464844 380.890625 880.351562 387.242188 C 881.234375 393.597656 887.117188 398.042969 893.480469 397.164062 C 899.832031 396.28125 904.28125 390.390625 903.398438 384.039062 C 902.585938 378.222656 897.589844 374.003906 891.882812 374.003906 Z M 891.863281 399.972656 C 884.832031 399.972656 878.679688 394.777344 877.679688 387.613281 C 876.589844 379.789062 882.074219 372.535156 889.898438 371.449219 C 897.722656 370.347656 904.976562 375.835938 906.066406 383.667969 C 907.15625 391.496094 901.675781 398.746094 893.847656 399.835938 C 893.183594 399.925781 892.519531 399.972656 891.863281 399.972656 Z M 891.949219 412.042969 C 892.621094 412.042969 893.191406 412.539062 893.285156 413.203125 L 893.933594 417.871094 L 898.457031 417.242188 L 897.808594 412.574219 C 897.714844 411.902344 898.132812 411.269531 898.785156 411.089844 C 903.035156 409.917969 906.949219 407.664062 910.09375 404.578125 C 910.574219 404.109375 911.320312 404.0625 911.851562 404.464844 L 915.507812 407.230469 L 918.265625 403.582031 L 914.695312 400.886719 C 914.148438 400.476562 914 399.714844 914.347656 399.125 C 916.636719 395.234375 917.886719 390.808594 917.957031 386.332031 C 917.96875 385.664062 918.460938 385.109375 919.121094 385.019531 L 923.238281 384.445312 L 922.609375 379.917969 L 918.65625 380.464844 C 917.972656 380.570312 917.328125 380.128906 917.160156 379.460938 C 916.035156 374.980469 913.726562 370.863281 910.488281 367.5625 C 910.023438 367.082031 909.972656 366.335938 910.375 365.804688 L 912.597656 362.863281 L 908.949219 360.105469 L 906.800781 362.957031 C 906.386719 363.503906 905.632812 363.652344 905.039062 363.308594 C 900.976562 360.914062 896.332031 359.636719 891.636719 359.699219 C 891.632812 359.699219 891.628906 359.699219 891.625 359.699219 C 890.953125 359.699219 890.382812 359.203125 890.289062 358.535156 L 889.816406 355.132812 L 885.289062 355.761719 L 885.765625 359.167969 C 885.855469 359.839844 885.4375 360.472656 884.785156 360.652344 C 880.25 361.90625 876.132812 364.375 872.878906 367.78125 C 872.402344 368.277344 871.636719 368.339844 871.089844 367.925781 L 868.238281 365.773438 L 865.484375 369.421875 L 868.425781 371.644531 C 868.957031 372.046875 869.117188 372.777344 868.796875 373.363281 C 866.582031 377.425781 865.484375 382.015625 865.628906 386.632812 C 865.648438 387.320312 865.148438 387.914062 864.464844 388.007812 L 860.507812 388.558594 L 861.136719 393.085938 L 865.257812 392.511719 C 865.898438 392.414062 866.546875 392.824219 866.738281 393.457031 C 868.03125 397.75 870.4375 401.664062 873.699219 404.785156 C 874.195312 405.257812 874.257812 406.027344 873.84375 406.574219 L 871.148438 410.140625 L 874.796875 412.894531 L 877.5625 409.238281 C 877.960938 408.703125 878.691406 408.542969 879.28125 408.867188 C 883.152344 410.976562 887.5625 412.132812 891.941406 412.042969 C 891.941406 412.042969 891.945312 412.042969 891.949219 412.042969 Z M 892.78125 420.742188 C 892.492188 420.742188 892.207031 420.648438 891.972656 420.46875 C 891.683594 420.253906 891.496094 419.933594 891.445312 419.578125 L 890.769531 414.722656 C 886.695312 414.582031 882.679688 413.574219 879.023438 411.769531 L 876.136719 415.597656 C 875.917969 415.882812 875.597656 416.070312 875.246094 416.117188 C 874.890625 416.171875 874.53125 416.074219 874.246094 415.859375 L 868.449219 411.480469 C 868.164062 411.261719 867.976562 410.941406 867.925781 410.585938 C 867.875 410.234375 867.972656 409.875 868.183594 409.589844 L 870.984375 405.882812 C 868.085938 402.875 865.871094 399.265625 864.511719 395.339844 L 860.171875 395.941406 C 859.816406 395.996094 859.457031 395.898438 859.175781 395.683594 C 858.886719 395.46875 858.703125 395.148438 858.652344 394.792969 L 857.652344 387.59375 C 857.546875 386.855469 858.0625 386.175781 858.800781 386.074219 L 862.917969 385.5 C 862.972656 381.207031 863.988281 376.964844 865.890625 373.109375 L 862.78125 370.757812 C 862.496094 370.542969 862.308594 370.222656 862.257812 369.867188 C 862.210938 369.515625 862.304688 369.15625 862.519531 368.871094 L 866.902344 363.074219 C 867.351562 362.476562 868.195312 362.359375 868.789062 362.808594 L 871.777344 365.066406 C 874.9375 362.019531 878.757812 359.734375 882.933594 358.390625 L 882.433594 354.796875 C 882.332031 354.058594 882.84375 353.378906 883.582031 353.277344 L 890.78125 352.273438 C 891.132812 352.21875 891.496094 352.320312 891.777344 352.53125 C 892.0625 352.75 892.253906 353.070312 892.300781 353.425781 L 892.800781 357.019531 C 897.183594 357.171875 901.480469 358.324219 905.355469 360.394531 L 907.613281 357.40625 C 907.828125 357.121094 908.148438 356.933594 908.503906 356.882812 C 908.855469 356.828125 909.21875 356.925781 909.5 357.144531 L 915.300781 361.523438 C 915.582031 361.738281 915.773438 362.0625 915.820312 362.414062 C 915.871094 362.769531 915.78125 363.128906 915.5625 363.414062 L 913.214844 366.519531 C 916.097656 369.710938 918.230469 373.511719 919.457031 377.632812 L 923.574219 377.058594 C 923.929688 377.007812 924.289062 377.101562 924.574219 377.320312 C 924.859375 377.535156 925.046875 377.855469 925.097656 378.210938 L 926.097656 385.40625 C 926.199219 386.144531 925.683594 386.824219 924.945312 386.925781 L 920.613281 387.53125 C 920.375 391.683594 919.226562 395.757812 917.261719 399.441406 L 920.964844 402.242188 C 921.25 402.457031 921.4375 402.78125 921.488281 403.132812 C 921.539062 403.488281 921.445312 403.847656 921.226562 404.132812 L 916.847656 409.929688 C 916.398438 410.523438 915.550781 410.640625 914.960938 410.191406 L 911.132812 407.300781 C 908.109375 410.03125 904.519531 412.105469 900.640625 413.347656 L 901.316406 418.207031 C 901.363281 418.558594 901.273438 418.917969 901.054688 419.203125 C 900.839844 419.488281 900.519531 419.675781 900.164062 419.726562 L 892.96875 420.730469 C 892.90625 420.738281 892.84375 420.742188 892.78125 420.742188 " fill-opacity="1" fill-rule="nonzero"/><path fill="#310d12" d="M 886.976562 327.511719 C 884.464844 327.511719 882.417969 329.554688 882.417969 332.066406 C 882.417969 334.578125 884.464844 336.621094 886.976562 336.621094 C 889.484375 336.621094 891.53125 334.578125 891.53125 332.066406 C 891.53125 329.554688 889.484375 327.511719 886.976562 327.511719 Z M 886.976562 339.316406 C 882.976562 339.316406 879.722656 336.066406 879.722656 332.066406 C 879.722656 328.070312 882.976562 324.8125 886.976562 324.8125 C 890.972656 324.8125 894.226562 328.070312 894.226562 332.066406 C 894.226562 336.066406 890.972656 339.316406 886.976562 339.316406 Z M 882.714844 342.429688 C 882.859375 342.429688 883.003906 342.453125 883.144531 342.5 C 883.585938 342.648438 884.035156 342.769531 884.484375 342.863281 C 885.0625 342.980469 885.492188 343.457031 885.554688 344.039062 L 885.859375 346.878906 L 891.203125 346.304688 L 890.886719 343.332031 C 890.824219 342.769531 891.125 342.222656 891.636719 341.976562 C 892.015625 341.789062 892.386719 341.585938 892.75 341.355469 C 893.238281 341.042969 893.867188 341.078125 894.320312 341.441406 L 896.660156 343.328125 L 900.03125 339.144531 L 897.699219 337.265625 C 897.25 336.902344 897.082031 336.292969 897.28125 335.75 C 897.425781 335.347656 897.554688 334.9375 897.652344 334.523438 C 897.785156 333.96875 898.253906 333.558594 898.820312 333.5 L 901.78125 333.183594 L 901.210938 327.839844 L 898.386719 328.140625 C 897.789062 328.199219 897.246094 327.878906 897.007812 327.34375 C 896.824219 326.917969 896.609375 326.5 896.367188 326.101562 C 896.078125 325.617188 896.121094 325.003906 896.476562 324.5625 L 898.234375 322.382812 L 894.050781 319.007812 L 892.417969 321.039062 C 892.046875 321.492188 891.417969 321.660156 890.871094 321.445312 C 890.398438 321.257812 889.898438 321.097656 889.386719 320.976562 C 888.835938 320.84375 888.421875 320.375 888.363281 319.808594 L 888.089844 317.257812 L 882.746094 317.828125 L 883.007812 320.25 C 883.070312 320.832031 882.746094 321.386719 882.214844 321.621094 C 881.707031 321.847656 881.214844 322.113281 880.742188 322.410156 C 880.253906 322.71875 879.625 322.6875 879.171875 322.320312 L 877.289062 320.804688 L 873.921875 324.988281 L 875.800781 326.507812 C 876.253906 326.871094 876.421875 327.480469 876.222656 328.023438 C 876.035156 328.53125 875.882812 329.070312 875.773438 329.621094 C 875.652344 330.195312 875.175781 330.628906 874.59375 330.691406 L 872.167969 330.953125 L 872.738281 336.296875 L 875.304688 336.019531 C 875.878906 335.957031 876.410156 336.261719 876.660156 336.769531 C 876.886719 337.234375 877.144531 337.6875 877.433594 338.113281 C 877.761719 338.601562 877.730469 339.25 877.359375 339.710938 L 875.714844 341.75 L 879.898438 345.125 L 881.667969 342.929688 C 881.925781 342.605469 882.3125 342.429688 882.714844 342.429688 Z M 884.660156 349.710938 C 883.980469 349.710938 883.398438 349.199219 883.320312 348.503906 L 883.007812 345.566406 L 881.148438 347.867188 C 880.925781 348.144531 880.597656 348.324219 880.242188 348.359375 C 879.890625 348.402344 879.53125 348.292969 879.253906 348.070312 L 872.972656 343.003906 C 872.394531 342.535156 872.304688 341.6875 872.769531 341.109375 L 874.625 338.804688 L 871.683594 339.117188 C 871.328125 339.160156 870.972656 339.050781 870.695312 338.828125 C 870.414062 338.601562 870.238281 338.277344 870.203125 337.921875 L 869.339844 329.898438 C 869.300781 329.542969 869.40625 329.183594 869.632812 328.90625 C 869.855469 328.628906 870.179688 328.449219 870.535156 328.414062 L 873.363281 328.109375 C 873.371094 328.082031 873.378906 328.050781 873.386719 328.023438 L 871.175781 326.242188 C 870.597656 325.773438 870.503906 324.925781 870.972656 324.34375 L 876.039062 318.0625 C 876.507812 317.484375 877.351562 317.390625 877.933594 317.859375 L 880.140625 319.640625 C 880.167969 319.625 880.195312 319.609375 880.226562 319.59375 L 879.921875 316.773438 C 879.882812 316.417969 879.988281 316.0625 880.210938 315.785156 C 880.4375 315.503906 880.765625 315.332031 881.121094 315.292969 L 889.144531 314.429688 C 889.5 314.390625 889.855469 314.496094 890.132812 314.722656 C 890.410156 314.945312 890.589844 315.273438 890.628906 315.625 L 890.941406 318.570312 L 892.796875 316.265625 C 893.265625 315.6875 894.109375 315.59375 894.695312 316.0625 L 900.976562 321.128906 C 901.253906 321.355469 901.429688 321.679688 901.472656 322.035156 C 901.507812 322.390625 901.40625 322.746094 901.179688 323.027344 L 899.320312 325.328125 L 902.261719 325.011719 C 902.617188 324.976562 902.976562 325.078125 903.253906 325.304688 C 903.53125 325.527344 903.707031 325.855469 903.746094 326.210938 L 904.605469 334.234375 C 904.644531 334.589844 904.542969 334.945312 904.316406 335.226562 C 904.09375 335.503906 903.765625 335.679688 903.410156 335.71875 L 900.46875 336.035156 L 902.773438 337.890625 C 903.351562 338.359375 903.441406 339.210938 902.976562 339.785156 L 897.910156 346.070312 C 897.445312 346.648438 896.597656 346.742188 896.015625 346.273438 L 893.710938 344.417969 L 894.027344 347.359375 C 894.0625 347.710938 893.960938 348.070312 893.738281 348.347656 C 893.511719 348.625 893.183594 348.804688 892.828125 348.839844 L 884.808594 349.699219 C 884.757812 349.707031 884.710938 349.710938 884.660156 349.710938 " fill-opacity="1" fill-rule="nonzero"/><path fill="#310d12" d="M 459.167969 190.207031 L 435.089844 174.921875 L 449.828125 174.921875 L 459.167969 179.503906 Z M 449.828125 174.921875 L 435.089844 174.921875 L 459.167969 159.667969 L 459.167969 170.640625 L 449.828125 174.921875 " fill-opacity="1" fill-rule="nonzero"/><path fill="#310d12" d="M 479.542969 198.050781 C 479.542969 198.050781 478.207031 197.332031 475.539062 195.894531 C 472.863281 194.457031 470.824219 192.363281 469.421875 189.609375 C 468.019531 186.859375 467.316406 183.535156 467.316406 179.640625 L 467.316406 166.089844 C 467.316406 162.195312 468.019531 158.871094 469.421875 156.121094 C 470.824219 153.371094 472.863281 151.269531 475.539062 149.820312 C 478.207031 148.371094 481.421875 147.648438 485.183594 147.648438 C 488.28125 147.648438 491.054688 148.316406 493.5 149.652344 C 495.945312 150.988281 497.964844 152.929688 499.5625 155.476562 C 501.160156 158.023438 502.261719 161.097656 502.875 164.695312 L 493.230469 164.695312 C 492.867188 163.066406 492.304688 161.675781 491.546875 160.519531 C 490.789062 159.367188 489.871094 158.480469 488.796875 157.871094 C 487.722656 157.257812 486.519531 156.953125 485.183594 156.953125 C 483.433594 156.953125 481.957031 157.308594 480.730469 158.023438 C 479.507812 158.738281 478.574219 159.777344 477.929688 161.148438 C 477.285156 162.519531 476.964844 164.164062 476.964844 166.089844 L 476.964844 179.640625 C 476.964844 181.566406 477.285156 183.207031 477.929688 184.570312 C 478.574219 185.925781 479.507812 186.960938 480.730469 187.675781 C 481.957031 188.386719 483.433594 188.742188 485.183594 188.742188 C 486.539062 188.742188 487.761719 188.445312 488.847656 187.84375 C 489.933594 187.246094 490.851562 186.367188 491.597656 185.214844 C 492.34375 184.058594 492.890625 182.65625 493.230469 181 L 502.875 181 C 502.238281 184.601562 501.125 187.675781 499.527344 190.222656 C 497.933594 192.769531 495.917969 194.710938 493.484375 196.046875 C 491.050781 197.382812 488.28125 198.050781 485.183594 198.050781 C 481.421875 198.050781 479.542969 198.050781 479.542969 198.050781 " fill-opacity="1" fill-rule="nonzero"/><path fill="#310d12" d="M 532.792969 187.675781 C 534.058594 186.960938 535.039062 185.949219 535.730469 184.636719 C 536.417969 183.324219 536.765625 181.804688 536.765625 180.082031 L 536.765625 165.613281 C 536.765625 163.894531 536.417969 162.378906 535.730469 161.0625 C 535.039062 159.75 534.058594 158.738281 532.792969 158.023438 C 531.523438 157.308594 530.054688 156.953125 528.375 156.953125 C 526.699219 156.953125 525.230469 157.308594 523.960938 158.023438 C 522.695312 158.738281 521.714844 159.75 521.027344 161.0625 C 520.332031 162.378906 519.988281 163.894531 519.988281 165.613281 L 519.988281 180.082031 C 519.988281 181.804688 520.332031 183.324219 521.027344 184.636719 C 521.714844 185.949219 522.695312 186.960938 523.960938 187.675781 C 525.230469 188.386719 526.699219 188.742188 528.375 188.742188 C 530.054688 188.742188 531.523438 188.386719 532.792969 187.675781 Z M 518.921875 195.792969 C 516.191406 194.285156 514.082031 192.160156 512.585938 189.40625 C 511.089844 186.65625 510.34375 183.46875 510.34375 179.847656 L 510.34375 165.851562 C 510.34375 162.230469 511.089844 159.042969 512.585938 156.292969 C 514.082031 153.539062 516.191406 151.410156 518.921875 149.90625 C 521.648438 148.398438 524.800781 147.648438 528.375 147.648438 C 531.953125 147.648438 535.105469 148.398438 537.835938 149.90625 C 540.5625 151.410156 542.675781 153.539062 544.167969 156.292969 C 545.660156 159.042969 546.410156 162.230469 546.410156 165.851562 L 546.410156 179.847656 C 546.410156 183.46875 545.660156 186.65625 544.167969 189.40625 C 542.675781 192.160156 540.5625 194.285156 537.835938 195.792969 C 535.105469 197.296875 531.953125 198.050781 528.375 198.050781 C 524.800781 198.050781 521.648438 197.296875 518.921875 195.792969 " fill-opacity="1" fill-rule="nonzero"/><path fill="#310d12" d="M 560.945312 188.574219 L 572.796875 188.574219 C 575.851562 188.574219 578.21875 187.839844 579.894531 186.367188 C 581.570312 184.894531 582.40625 182.8125 582.40625 180.117188 L 582.40625 165.582031 C 582.40625 162.886719 581.570312 160.804688 579.894531 159.332031 C 578.21875 157.859375 575.851562 157.125 572.796875 157.125 L 560.945312 157.125 L 560.945312 148.15625 L 572.59375 148.15625 C 576.714844 148.15625 580.230469 148.847656 583.136719 150.226562 C 586.046875 151.609375 588.257812 153.625 589.777344 156.273438 C 591.292969 158.925781 592.050781 162.117188 592.050781 165.851562 L 592.050781 179.847656 C 592.050781 183.402344 591.320312 186.503906 589.863281 189.152344 C 588.398438 191.800781 586.210938 193.863281 583.289062 195.332031 C 580.371094 196.804688 576.789062 197.539062 572.558594 197.539062 L 560.945312 197.539062 Z M 556.257812 148.15625 L 565.5625 148.15625 L 565.5625 197.539062 L 556.257812 197.539062 L 556.257812 148.15625 " fill-opacity="1" fill-rule="nonzero"/><path fill="#310d12" d="M 605.261719 188.574219 L 634.976562 188.574219 L 634.976562 197.539062 L 605.261719 197.539062 Z M 605.261719 168.539062 L 631.242188 168.539062 L 631.242188 177.5 L 605.261719 177.5 Z M 605.261719 148.15625 L 634.976562 148.15625 L 634.976562 157.125 L 605.261719 157.125 Z M 601.898438 148.15625 L 611.207031 148.15625 L 611.207031 197.539062 L 601.898438 197.539062 L 601.898438 148.15625 " fill-opacity="1" fill-rule="nonzero"/><path fill="#310d12" d="M 651.449219 174.921875 L 666.1875 174.921875 L 642.109375 190.207031 L 642.109375 179.503906 Z M 642.109375 159.667969 L 666.1875 174.921875 L 651.449219 174.921875 L 642.109375 170.640625 L 642.109375 159.667969 " fill-opacity="1" fill-rule="nonzero"/><path fill="#f68837" d="M 539.019531 258.332031 L 506.917969 238.269531 L 506.917969 248.300781 L 389.691406 248.300781 L 389.691406 267.75 L 506.917969 267.75 L 506.917969 277.78125 L 539.019531 258.332031 " fill-opacity="1" fill-rule="nonzero"/><path fill="#f68837" d="M 389.691406 312.988281 L 421.792969 292.921875 L 421.792969 302.957031 L 539.019531 302.957031 L 539.019531 322.40625 L 421.792969 322.40625 L 421.792969 332.4375 L 389.691406 312.988281 " fill-opacity="1" fill-rule="nonzero"/></svg>